<svg width="662" height="809" xmlns="http://www.w3.org/2000/svg" xml:space="preserve" overflow="hidden"><g fill-rule="evenodd"><path d="M628.9 0H662v809H0V0h33.1Z" fill="purple"/><path d="M613.5 68.5c0 22.644-18.58 41-41.5 41s-41.5-18.356-41.5-41 18.58-41 41.5-41 41.5 18.356 41.5 41ZM613.5 204c0 22.92-18.58 41.5-41.5 41.5s-41.5-18.58-41.5-41.5 18.58-41.5 41.5-41.5 41.5 18.58 41.5 41.5ZM613.5 475c0 22.92-18.58 41.5-41.5 41.5s-41.5-18.58-41.5-41.5 18.58-41.5 41.5-41.5 41.5 18.58 41.5 41.5ZM613.5 610.5c0 22.64-18.58 41-41.5 41s-41.5-18.36-41.5-41 18.58-41 41.5-41 41.5 18.36 41.5 41ZM613.5 746c0 22.92-18.58 41.5-41.5 41.5s-41.5-18.58-41.5-41.5 18.58-41.5 41.5-41.5 41.5 18.58 41.5 41.5ZM613.5 339.5c0 22.644-18.58 41-41.5 41s-41.5-18.356-41.5-41 18.58-41 41.5-41 41.5 18.356 41.5 41Z" stroke="#000" stroke-width="6.875" stroke-miterlimit="8" fill="gold"/><path d="M382 48.484h4.72l12.76 35.892 12.8-35.892h4.7l-14.63 40.032h-5.72ZM470.99 48h4.67c4.92 0 8.37.865 10.36 2.594 1.99 1.73 2.98 4.665 2.98 8.805v1.748h-4.56v-1.102c0-3.029-.62-5.1-1.86-6.211-1.23-1.111-3.65-1.667-7.24-1.667h-3.09c-2.42 0-4.18.148-5.28.444-1.1.296-2.01.793-2.75 1.492-.73.681-1.25 1.573-1.54 2.675-.3 1.102-.44 3.114-.44 6.036v11.399c0 2.904.14 4.907.44 6.009.29 1.102.81 1.994 1.54 2.675.74.699 1.63 1.196 2.67 1.492 1.05.296 2.84.444 5.36.444h3.09c3.68 0 6.13-.583 7.35-1.748 1.22-1.165 1.83-3.396 1.83-6.694 0-.502-.01-.887-.02-1.156-.01-.269-.02-.52-.04-.753H489v2.635c0 4.445-.96 7.536-2.89 9.275-1.92 1.738-5.4 2.608-10.45 2.608h-4.67c-4.96 0-8.42-1.004-10.38-3.011-1.96-2.008-2.94-5.574-2.94-10.701V61.711c0-5.126.98-8.692 2.94-10.7 1.96-2.007 5.42-3.011 10.38-3.011Zm-37.8 0h4.67c4.92 0 8.38.865 10.36 2.594 1.99 1.73 2.98 4.665 2.98 8.805v1.748h-4.56v-1.102c0-3.029-.62-5.1-1.85-6.211-1.24-1.111-3.65-1.667-7.25-1.667h-3.09c-2.41 0-4.17.148-5.27.444-1.1.296-2.02.793-2.75 1.492-.74.681-1.25 1.573-1.55 2.675-.29 1.102-.44 3.114-.44 6.036v11.399c0 2.904.15 4.907.44 6.009.3 1.102.81 1.994 1.55 2.675.73.699 1.62 1.196 2.67 1.492 1.04.296 2.83.444 5.35.444h3.09c3.69 0 6.14-.583 7.36-1.748 1.21-1.165 1.82-3.396 1.82-6.694 0-.502 0-.887-.01-1.156-.01-.269-.03-.52-.04-.753h4.53v2.635c0 4.445-.96 7.536-2.88 9.275C446.39 88.13 442.91 89 437.86 89h-4.67c-4.96 0-8.41-1.004-10.37-3.011-1.96-2.008-2.94-5.574-2.94-10.701V61.711c0-5.126.98-8.692 2.94-10.7 1.96-2.007 5.41-3.011 10.37-3.011ZM467.49 188.463v32.101h14.19c3.85 0 6.43-.654 7.74-1.963 1.3-1.308 1.96-3.8 1.96-7.474v-12.932c0-3.871-.65-6.461-1.95-7.769-1.3-1.309-3.88-1.963-7.75-1.963Zm-4.41-3.979h19.32c5.02 0 8.54.995 10.56 2.984 2.03 1.99 3.04 5.458 3.04 10.405v13.2c0 4.965-1.02 8.447-3.05 10.445-2.03 1.998-5.55 2.998-10.55 2.998h-19.32Zm-41.27 0h6.82l21.69 35.73v-35.73h4.4v40.032h-6.82l-21.69-35.784v35.784h-4.4ZM393.4 184h5.08c4.93 0 8.56.838 10.9 2.514 2.34 1.676 3.51 4.288 3.51 7.837v1.694h-4.57v-.484c0-2.761-.7-4.683-2.1-5.767-1.4-1.085-4.07-1.627-8.01-1.627h-3.52c-2.74 0-4.71.153-5.91.457-1.2.305-2.22.816-3.06 1.533-.77.663-1.31 1.55-1.63 2.661-.31 1.112-.47 3.11-.47 5.996v11.399c0 2.868.16 4.857.47 5.969.32 1.111.86 1.998 1.63 2.661.84.717 1.84 1.228 3.01 1.532 1.16.305 3.15.457 5.96.457h3.52c2.55 0 4.35-.134 5.4-.403 1.06-.269 1.97-.726 2.75-1.371.71-.609 1.22-1.443 1.51-2.5.3-1.058.45-2.868.45-5.431v-2.473h-11.1v-4.06h15.67v6.694c0 5.127-1.06 8.693-3.18 10.701-2.11 2.007-5.85 3.011-11.23 3.011h-5.08c-5.37 0-9.12-1.004-11.23-3.011-2.11-2.008-3.17-5.574-3.17-10.701v-13.577c0-5.108 1.06-8.67 3.17-10.686 2.11-2.017 5.86-3.025 11.23-3.025ZM463.92 319.484h4.36v35.791H491v4.188h-27.08ZM438.1 319h4.68c4.94 0 8.4.864 10.39 2.591 2 1.727 2.99 4.659 2.99 8.794v1.745h-4.57v-1.101c0-3.025-.62-5.092-1.86-6.202-1.24-1.11-3.66-1.665-7.27-1.665h-3.1c-2.42 0-4.18.148-5.29.443-1.1.295-2.02.792-2.76 1.49-.73.68-1.25 1.571-1.54 2.672-.3 1.1-.45 3.11-.45 6.027v11.385c0 2.9.15 4.9.45 6.001.29 1.101.81 1.991 1.54 2.672.74.697 1.63 1.194 2.68 1.49 1.05.295 2.84.443 5.37.443h3.1c3.7 0 6.16-.582 7.38-1.746 1.22-1.163 1.83-3.391 1.83-6.685 0-.502-.01-.886-.02-1.155-.01-.268-.02-.519-.04-.752h4.55v2.632c0 4.439-.96 7.527-2.89 9.263-1.93 1.736-5.43 2.605-10.49 2.605h-4.68c-4.97 0-8.44-1.003-10.41-3.008-1.96-2.004-2.95-5.567-2.95-10.686v-13.559c0-5.12.99-8.682 2.95-10.686 1.97-2.005 5.44-3.008 10.41-3.008Zm-36.48 0h1.43c4.11 0 7 .197 8.68.591 1.68.394 3.08 1.074 4.21 2.041.77.644 1.34 1.561 1.71 2.752.37 1.19.55 2.671.55 4.443 0 .519 0 .918-.01 1.195-.01.278-.02.524-.04.738h-4.47v-.993c0-1.468-.09-2.591-.26-3.37-.17-.778-.44-1.356-.82-1.731-.55-.555-1.55-.945-2.97-1.169-1.43-.223-4.13-.335-8.12-.335-4.13 0-6.72.465-7.78 1.396-1.06.931-1.59 2.793-1.59 5.585 0 2.291.35 3.871 1.04 4.739.69.868 2.02 1.383 4 1.544l12.6 1.047c3.3.286 5.61 1.195 6.94 2.725 1.33 1.531 1.99 4.086 1.99 7.666 0 2.613-.17 4.578-.51 5.894-.34 1.315-.9 2.412-1.69 3.289-.97 1.092-2.28 1.857-3.92 2.295-1.64.439-4.64.658-8.98.658h-1.99c-3.7 0-6.31-.188-7.85-.564-1.53-.376-2.81-1.029-3.84-1.96-1-.859-1.74-2.022-2.22-3.49-.47-1.468-.71-3.33-.71-5.585v-1.96h4.47v.752c0 2.38.18 4.135.54 5.262.36 1.128.95 1.925 1.77 2.39.65.358 1.65.613 2.99.765 1.35.152 4.12.228 8.32.228 2.28 0 4.05-.147 5.31-.443 1.25-.295 2.18-.774 2.8-1.436.34-.358.59-.967.75-1.826.16-.859.24-2.023.24-3.49 0-2.972-.3-4.838-.9-5.599-.6-.76-1.79-1.212-3.57-1.356l-12.36-.966c-3.69-.287-6.25-1.209-7.67-2.766s-2.12-4.179-2.12-7.867c0-2.327.23-4.197.7-5.611.46-1.415 1.22-2.587 2.26-3.518.8-.716 1.94-1.221 3.39-1.517 1.45-.295 4.02-.443 7.7-.443ZM476.77 459.73l-7.93 21.56h17.34l-7.98-21.56Zm-50.39-.27v32.06h14.2c3.85 0 6.43-.66 7.74-1.96 1.31-1.31 1.96-3.8 1.96-7.47v-12.91c0-3.87-.65-6.46-1.95-7.76-1.3-1.31-3.88-1.96-7.75-1.96Zm47.46-3.98h7.29L496 495.46h-4.57l-3.82-10.23h-20.25l-3.74 10.23h-4.57Zm-51.87 0h19.33c5.02 0 8.54 1 10.57 2.98 2.03 1.99 3.04 5.45 3.04 10.39v13.19c0 4.96-1.02 8.43-3.05 10.43-2.04 2-5.56 2.99-10.56 2.99h-19.33ZM397.6 455h1.43c4.1 0 6.99.2 8.67.59 1.68.39 3.08 1.07 4.21 2.04.77.65 1.34 1.56 1.71 2.75.36 1.19.55 2.67.55 4.45 0 .52-.01.91-.02 1.19 0 .28-.02.53-.04.74h-4.46v-.99c0-1.47-.09-2.59-.26-3.37-.17-.78-.44-1.36-.82-1.73-.55-.56-1.54-.95-2.97-1.17-1.42-.23-4.12-.34-8.11-.34-4.12 0-6.71.47-7.77 1.4-1.05.93-1.58 2.79-1.58 5.58 0 2.29.34 3.87 1.03 4.74.69.87 2.02 1.38 4 1.55l12.58 1.04c3.3.29 5.61 1.2 6.94 2.73s1.99 4.08 1.99 7.66c0 2.62-.17 4.58-.51 5.9-.34 1.31-.91 2.41-1.7 3.29-.96 1.09-2.27 1.85-3.91 2.29-1.64.44-4.63.66-8.97.66h-1.99c-3.69 0-6.3-.19-7.84-.56-1.53-.38-2.81-1.03-3.83-1.96-1-.86-1.74-2.03-2.22-3.49-.47-1.47-.71-3.33-.71-5.59v-1.96h4.46v.75c0 2.38.18 4.14.54 5.27.36 1.12.95 1.92 1.78 2.39.64.35 1.64.61 2.98.76 1.35.15 4.12.23 8.31.23 2.28 0 4.04-.15 5.3-.44 1.25-.3 2.19-.78 2.8-1.44.34-.36.59-.97.75-1.83.16-.86.24-2.02.24-3.49 0-2.97-.3-4.84-.9-5.6-.6-.76-1.79-1.21-3.56-1.35l-12.35-.97c-3.69-.28-6.24-1.21-7.66-2.76-1.42-1.56-2.13-4.18-2.13-7.87 0-2.33.24-4.2.7-5.61.47-1.42 1.22-2.59 2.26-3.52.81-.72 1.94-1.22 3.39-1.52 1.45-.29 4.02-.44 7.69-.44ZM465.15 612.83v14.44h14.54c2.65 0 4.42-.4 5.34-1.22.91-.81 1.36-2.93 1.36-6.35 0-2.88-.51-4.75-1.53-5.6-1.01-.85-3.66-1.27-7.93-1.27Zm0-17.1v13.02h14.38c2.34 0 3.92-.42 4.72-1.26.8-.85 1.2-2.7 1.2-5.56 0-2.74-.42-4.46-1.28-5.16-.86-.7-3.05-1.04-6.57-1.04Zm-4.34-4.25h18.56c4.29 0 7.13.66 8.54 1.96 1.4 1.31 2.1 3.98 2.1 8 0 3.1-.35 5.27-1.03 6.52-.69 1.24-1.9 2.09-3.63 2.56 2.1.54 3.57 1.49 4.4 2.86.83 1.37 1.25 3.67 1.25 6.91 0 4.41-.87 7.37-2.6 8.89-1.73 1.52-5.21 2.28-10.42 2.28h-17.17Zm-24.38-.48h1.42c4.09 0 6.97.2 8.64.59 1.67.39 3.07 1.07 4.19 2.04.77.65 1.34 1.56 1.7 2.75.37 1.19.55 2.67.55 4.45 0 .52 0 .91-.01 1.19-.01.28-.02.53-.04.74h-4.45v-.99c0-1.47-.08-2.59-.25-3.37-.17-.78-.45-1.36-.82-1.73-.56-.56-1.54-.95-2.96-1.17-1.42-.23-4.11-.34-8.08-.34-4.11 0-6.69.47-7.74 1.4-1.05.93-1.58 2.79-1.58 5.58 0 2.29.34 3.87 1.03 4.74.69.87 2.01 1.38 3.98 1.55l12.54 1.04c3.28.29 5.59 1.2 6.91 2.73 1.32 1.53 1.98 4.08 1.98 7.66 0 2.62-.17 4.58-.51 5.9-.34 1.31-.9 2.41-1.69 3.29-.96 1.09-2.26 1.85-3.89 2.29-1.64.44-4.62.66-8.94.66h-1.98c-3.68 0-6.28-.19-7.81-.56-1.53-.38-2.8-1.03-3.82-1.96-1-.86-1.74-2.03-2.21-3.49-.47-1.47-.71-3.33-.71-5.59v-1.96h4.45v.75c0 2.38.18 4.14.53 5.27.36 1.12.95 1.92 1.77 2.38.65.36 1.64.62 2.98.77 1.34.15 4.09.23 8.27.23 2.27 0 4.03-.15 5.28-.44 1.25-.3 2.18-.78 2.79-1.44.34-.36.59-.97.75-1.83.16-.86.24-2.02.24-3.49 0-2.97-.3-4.84-.9-5.6-.6-.76-1.78-1.21-3.55-1.35l-12.29-.97c-3.68-.28-6.23-1.21-7.64-2.76-1.41-1.56-2.12-4.18-2.12-7.87 0-2.33.24-4.2.7-5.61.46-1.42 1.21-2.59 2.25-3.52.8-.72 1.93-1.22 3.38-1.52 1.44-.29 4-.44 7.66-.44Zm-39.14 0h4.66c4.91 0 8.36.86 10.34 2.59 1.98 1.73 2.97 4.66 2.97 8.79v1.75h-4.55v-1.1c0-3.03-.62-5.09-1.85-6.2-1.23-1.11-3.64-1.67-7.23-1.67h-3.08c-2.41 0-4.17.15-5.27.44-1.1.3-2.01.8-2.74 1.49-.74.69-1.25 1.58-1.54 2.68-.3 1.1-.45 3.11-.45 6.02v11.39c0 2.9.15 4.9.45 6 .29 1.1.8 1.99 1.54 2.67.73.7 1.62 1.2 2.66 1.49 1.05.3 2.83.44 5.35.44h3.08c3.68 0 6.12-.58 7.34-1.74 1.21-1.16 1.82-3.39 1.82-6.69 0-.5 0-.88-.01-1.15-.01-.27-.03-.52-.04-.75h4.52v2.63c0 4.44-.96 7.53-2.88 9.26-1.92 1.74-5.39 2.61-10.43 2.61h-4.66c-4.95 0-8.4-1.01-10.36-3.01-1.95-2.01-2.93-5.57-2.93-10.69v-13.56c0-5.12.98-8.68 2.93-10.68 1.96-2.01 5.41-3.01 10.36-3.01ZM424.01 731.46v32.06h14.08c3.83 0 6.39-.66 7.68-1.96 1.3-1.31 1.95-3.8 1.95-7.47v-12.91c0-3.87-.64-6.46-1.93-7.76-1.29-1.31-3.86-1.96-7.7-1.96Zm50.91-.3c-2.79 0-4.76.15-5.92.46-1.16.3-2.15.81-2.99 1.53-.78.68-1.33 1.6-1.65 2.75-.32 1.16-.48 3.14-.48 5.95v11.33c0 2.79.16 4.76.48 5.89.32 1.14.87 2.05 1.65 2.73.84.71 1.83 1.22 2.99 1.53 1.16.3 3.13.45 5.92.45h2.45c2.79 0 4.78-.15 5.95-.45 1.17-.31 2.18-.82 3.01-1.53.77-.66 1.31-1.55 1.62-2.66.31-1.11.46-3.1.46-5.96v-11.39c0-2.81-.16-4.79-.48-5.94-.32-1.16-.87-2.07-1.65-2.75-.82-.7-1.8-1.2-2.96-1.5-1.16-.29-3.14-.44-5.95-.44Zm-55.28-3.68h19.17c4.98 0 8.47 1 10.48 2.98 2.01 1.99 3.02 5.45 3.02 10.39v13.19c0 4.96-1.01 8.43-3.03 10.43-2.02 2-5.51 2.99-10.47 2.99h-19.17Zm54.03-.48h5.01c5.4 0 9.14.99 11.21 2.98 2.07 1.99 3.11 5.56 3.11 10.71v13.56c0 5.12-1.05 8.68-3.16 10.69-2.11 2-5.83 3.01-11.16 3.01h-5.01c-5.35 0-9.08-1.01-11.18-3.01-2.09-2.01-3.14-5.57-3.14-10.69v-13.56c0-5.1 1.05-8.66 3.14-10.67 2.1-2.01 5.83-3.02 11.18-3.02Zm-78.19 0h1.41c4.07 0 6.94.2 8.6.59 1.67.39 3.06 1.07 4.18 2.04.76.65 1.33 1.56 1.69 2.75.36 1.19.55 2.68.55 4.45 0 .52-.01.91-.02 1.19-.01.28-.02.53-.04.74h-4.42v-.99c0-1.47-.09-2.59-.26-3.37-.17-.78-.44-1.36-.81-1.73-.55-.56-1.53-.95-2.95-1.17-1.41-.23-4.09-.34-8.04-.34-4.09 0-6.65.47-7.7 1.4-1.05.93-1.58 2.79-1.58 5.58 0 2.29.35 3.87 1.03 4.74.68.87 2 1.38 3.96 1.55l12.48 1.04c3.27.29 5.56 1.2 6.88 2.73 1.32 1.53 1.97 4.08 1.97 7.66 0 2.62-.17 4.58-.5 5.9-.34 1.31-.9 2.41-1.68 3.29-.96 1.09-2.26 1.85-3.88 2.29-1.63.44-4.59.66-8.9.66h-1.97c-3.66 0-6.25-.19-7.77-.56-1.52-.38-2.79-1.03-3.8-1.96-1-.86-1.73-2.03-2.2-3.49-.47-1.47-.71-3.33-.71-5.59v-1.96h4.43v.75c0 2.38.17 4.14.53 5.27.36 1.12.94 1.92 1.76 2.38.64.36 1.63.62 2.96.77 1.33.15 4.08.23 8.24.23 2.26 0 4.01-.15 5.25-.44 1.25-.3 2.17-.78 2.78-1.44.33-.36.58-.97.74-1.83.16-.86.24-2.02.24-3.49 0-2.97-.29-4.83-.89-5.6-.6-.76-1.77-1.21-3.53-1.35l-12.24-.97c-3.67-.28-6.2-1.21-7.6-2.76-1.41-1.56-2.11-4.18-2.11-7.87 0-2.33.23-4.2.69-5.61.47-1.42 1.21-2.59 2.24-3.52.8-.72 1.92-1.22 3.36-1.52 1.44-.29 3.99-.44 7.63-.44Z" fill="#FFF"/><path d="M194.5 86c0 37.831-30.89 68.5-69 68.5s-69-30.669-69-68.5 30.89-68.5 69-68.5 69 30.669 69 68.5ZM194.5 720.5c0 38.11-30.89 69-69 69s-69-30.89-69-69 30.89-69 69-69 69 30.89 69 69Z" stroke="#000" stroke-width="6.875" stroke-miterlimit="8" fill="#FFF"/><path d="M122.81 497.09c0-3.49-.12-5.99-.37-7.5-.24-1.51-.67-2.62-1.27-3.34-.6-.71-1.46-1.23-2.59-1.54-1.13-.31-2.66-.47-4.6-.47-2.38 0-4.09.12-5.13.37-1.04.24-1.86.65-2.46 1.21-.78.73-1.34 1.94-1.69 3.62-.34 1.68-.52 4.23-.52 7.65 0 3.28.13 5.72.39 7.31.25 1.59.67 2.75 1.25 3.49.63.8 1.45 1.37 2.48 1.69 1.02.33 2.72.49 5.08.49 1.92 0 3.35-.09 4.3-.27.95-.18 1.74-.48 2.39-.9 1.02-.65 1.74-1.76 2.14-3.33.4-1.56.6-4.39.6-8.48Zm0-217.655h-17.99v18.216c0 3.31.51 5.535 1.52 6.675 1.01 1.141 3.65 1.711 7.91 1.711 3.59 0 5.91-.637 6.97-1.912 1.06-1.274 1.59-4.585 1.59-9.93Zm21.3 113.295h-19.93v15.46c0 3.72.46 6.15 1.37 7.32.92 1.16 2.57 1.74 4.95 1.74h7.33c2.4 0 4.05-.56 4.95-1.69.89-1.13 1.33-3.59 1.33-7.37Zm0-113.295h-16.22v18.014c0 2.93.53 4.898 1.58 5.905 1.04 1.006 3.35 1.509 6.92 1.509 3.41 0 5.55-.537 6.42-1.61.87-1.074 1.3-3.813 1.3-8.219Zm.71 217.585c0-3.11-.14-5.48-.42-7.13-.28-1.64-.74-2.79-1.39-3.44-.47-.51-1.16-.87-2.09-1.07-.92-.2-2.65-.3-5.17-.3-3.25 0-5.4.72-6.43 2.16-1.04 1.44-1.56 4.86-1.56 10.25 0 5.03.53 8.25 1.59 9.66 1.06 1.41 3.29 2.11 6.7 2.11 1.99 0 3.42-.07 4.29-.23.86-.16 1.58-.43 2.14-.81.82-.53 1.42-1.66 1.78-3.38.37-1.73.56-4.33.56-7.82Zm.06 46.05c0-2.66-.17-4.59-.51-5.79-.35-1.2-.94-2.18-1.76-2.94-.8-.78-1.83-1.33-3.09-1.66-1.26-.32-3.5-.48-6.71-.48h-16.62c-3.21 0-5.45.16-6.71.48-1.26.33-2.29.88-3.09 1.66-.82.76-1.41 1.74-1.75 2.94-.35 1.2-.52 3.13-.52 5.79v4.39c0 2.62.17 4.52.52 5.72.34 1.2.93 2.2 1.75 3 .8.79 1.83 1.33 3.08 1.65 1.25.31 3.46.47 6.65.47h16.69c3.19 0 5.41-.16 6.66-.47 1.24-.32 2.27-.86 3.07-1.65.85-.82 1.45-1.87 1.81-3.13.36-1.27.53-3.13.53-5.59Zm4.52-155.84v21.03c0 5.61-.83 9.48-2.49 11.59-1.66 2.12-4.62 3.17-8.88 3.17h-7.53c-4.37 0-7.39-1.04-9.06-3.13-1.67-2.1-2.51-5.97-2.51-11.63v-15.53H99.6v-5.5Zm0-65.271v9.091l-44.38 17.109L149.4 365.1v9.16H99.6v-5.503h45.15L99.6 351.514v-6.811l45.15-17.243H99.6v-5.501Zm0-47.959v23.248c0 5.367-.82 8.929-2.44 10.685-1.63 1.755-4.95 2.633-9.97 2.633-3.86 0-6.56-.43-8.11-1.292-1.55-.86-2.61-2.376-3.19-4.545-.67 2.639-1.86 4.478-3.56 5.518-1.71 1.041-4.58 1.56-8.62 1.56-5.48 0-9.17-1.084-11.07-3.253-1.89-2.17-2.84-6.52-2.84-13.05V274Zm.6 268.87v4.79c0 6.09-1.25 10.33-3.75 12.73-2.49 2.41-6.93 3.61-13.31 3.61h-16.88c-6.38 0-10.82-1.2-13.31-3.61-2.5-2.4-3.75-6.64-3.75-12.73v-4.79c0-6.09 1.25-10.34 3.75-12.75 2.49-2.42 6.93-3.63 13.31-3.63h16.88c6.38 0 10.82 1.21 13.31 3.63 2.5 2.41 3.75 6.66 3.75 12.75Zm0-45.45c0 3.85-.19 6.9-.58 9.16-.4 2.26-1.01 3.88-1.86 4.87-1.09 1.29-2.4 2.2-3.91 2.73-1.52.52-3.87.79-7.06.79-3.68 0-6.34-.49-7.98-1.48-1.64-.98-2.68-2.65-3.12-5-.69 2.66-1.85 4.52-3.46 5.57-1.62 1.05-4.3 1.58-8.05 1.58-3.61 0-6.27-.24-7.97-.71-1.71-.47-3.06-1.26-4.07-2.38-1.07-1.18-1.83-2.92-2.27-5.2-.45-2.28-.67-5.86-.67-10.73 0-4.88.32-8.45.97-10.72.65-2.27 1.76-4.03 3.34-5.28.85-.7 2.04-1.2 3.57-1.5 1.52-.3 3.85-.45 6.97-.45 3.86 0 6.59.51 8.19 1.54 1.61 1.03 2.76 2.85 3.45 5.47.6-2.3 1.67-3.92 3.21-4.85 1.54-.92 4.03-1.39 7.49-1.39 2.72 0 4.74.14 6.07.42 1.32.28 2.49.76 3.49 1.43 1.56 1.05 2.66 2.73 3.3 5.05.63 2.31.95 6.01.95 11.08Zm0-49.37c0 3.9-.09 6.81-.28 8.74-.19 1.94-.51 3.4-.96 4.38-1.07 2.44-2.47 4.12-4.21 5.05-1.74.93-4.74 1.39-9 1.39-4.68 0-7.95-.69-9.81-2.08-1.86-1.38-3.34-4.03-4.43-7.95l-3.92-13.95c-.84-3-1.76-4.93-2.74-5.79-.98-.86-2.44-1.29-4.38-1.29h-5.45v31.06H99.6v-36.73h8.43c2.61 0 4.66.2 6.17.6 1.5.41 2.8 1.07 3.9 1.98 1.02.87 1.89 1.98 2.6 3.31.72 1.33 1.49 3.52 2.31 6.59l3.11 11.27c.47 1.74.99 3.18 1.56 4.29.57 1.12 1.16 1.89 1.79 2.32.44.31 1.07.54 1.87.67s2.37.2 4.71.2c2.41 0 4.1-.16 5.05-.47.96-.31 1.74-.86 2.35-1.64.49-.67.85-2 1.08-3.98.24-1.98.35-4.76.35-8.33 0-4.81-.53-7.87-1.59-9.18-1.05-1.31-3.29-1.96-6.7-1.96h-2.94v-5.67h3.27c4.93 0 8.34 1.18 10.24 3.54 1.89 2.36 2.84 6.9 2.84 13.63Z" fill="#FFF"/></g></svg>